<svg width="85" height="85" viewBox="0 0 85 85" fill="none" xmlns="http://www.w3.org/2000/svg">
<path fill-rule="evenodd" clip-rule="evenodd" d="M42.5 3.86189C21.0552 3.86189 3.69396 21.8853 3.69396 44.081C3.69396 60.3786 13.0546 74.4033 26.5271 80.7117C27.9367 81.3732 29.3144 81.1108 30.391 80.2682C30.9865 79.7844 31.4664 79.1633 31.7933 78.4535C32.1202 77.7437 32.2852 76.9646 32.2752 76.1772V74.0707L27.4692 73.3907C27.4336 73.3857 27.3981 73.3796 27.3629 73.3723C24.7137 72.8327 22.9252 71.8608 21.6148 70.4601C20.5133 69.2812 19.8404 67.8695 19.2702 66.6722L19.0719 66.2546C18.5449 65.1075 17.9694 63.9854 17.3471 62.8916C16.869 62.1007 16.4971 61.6942 16.1287 61.4392C15.1938 60.7925 14.2942 59.6949 14.2942 58.3238C14.291 57.9292 14.3719 57.5388 14.5312 57.1808C14.6905 56.8229 14.924 56.5064 15.215 56.2543C15.7642 55.8006 16.4486 55.5626 17.1488 55.5817C17.935 55.5817 18.6752 55.833 19.2915 56.1212C19.9219 56.4169 20.5487 56.8086 21.1331 57.2151C22.5569 58.2056 23.9594 59.3771 25.1458 60.822C26.3819 62.3224 27.2567 63.2759 28.5742 63.4718C29.6579 63.6344 30.7629 63.6381 31.6235 63.5974C31.7431 62.8864 31.9404 62.1921 32.2115 61.5279C31.1603 61.2719 30.1234 60.9561 29.1054 60.5818C26.7892 59.7244 24.2073 58.3903 22.4719 56.3689C20.5665 54.1441 19.3871 52.1596 18.7283 49.8387C18.0873 47.577 17.981 45.1269 17.981 42.1113C17.981 37.4918 19.8971 33.6003 21.335 31.5345C20.7825 29.7259 20.3855 27.8695 20.1485 25.9874C19.9916 24.8005 19.9928 23.5966 20.1521 22.4101C20.3292 21.3273 20.7719 19.9968 21.9371 19.1949C23.0598 18.4151 24.3773 18.4484 25.4044 18.648C26.4704 18.8586 27.579 19.3205 28.599 19.849C30.26 20.7064 31.9104 21.852 33.1465 22.824C35.2785 22.1699 39.0504 21.3273 42.461 21.2496H42.539C45.9531 21.3273 49.555 22.1699 51.634 22.8203C52.8735 21.852 54.5204 20.7027 56.1779 19.849C57.1979 19.3205 58.3029 18.8586 59.3725 18.648C60.3996 18.4484 61.7171 18.4151 62.8433 19.1912C64.005 19.9968 64.4512 21.3273 64.6248 22.4101C64.8054 23.5372 64.7629 24.7974 64.6248 25.9874C64.3889 27.8694 63.993 29.7257 63.4419 31.5345C64.8798 33.604 66.7958 37.4955 66.7958 42.1113C66.7958 45.1269 66.6896 47.577 66.0521 49.835C65.3898 52.1633 64.2104 54.1441 62.305 56.3689C60.5696 58.3903 57.9877 59.7244 55.6715 60.5818C54.4419 61.0327 53.1855 61.3994 51.9102 61.6794C52.3458 63.0542 52.5017 64.1665 52.5017 64.8059V76.2253C52.5017 77.9622 53.2773 79.4441 54.3787 80.3089C55.4483 81.1552 56.8225 81.4176 58.2321 80.7745C71.8321 74.5216 81.3025 60.4599 81.3025 44.0773C81.3025 21.8853 63.9483 3.86189 42.5 3.86189ZM33.5608 67.2967C32.64 67.4334 33.5573 67.2967 33.5573 67.2967H33.5467L33.5183 67.3041L33.4156 67.3189C32.8896 67.3834 32.3616 67.429 31.8325 67.4556C30.8337 67.5037 29.4631 67.5074 28.0571 67.2967C25.2556 66.8828 23.5521 64.8133 22.4506 63.4681L22.3444 63.3424C21.9842 62.9065 21.5974 62.4954 21.1863 62.1118C21.551 62.814 21.93 63.5974 22.3373 64.44L22.3727 64.5139L22.5533 64.8983C23.1731 66.1843 23.5804 67.0417 24.2569 67.7587C24.9156 68.4608 25.9427 69.1408 28.0181 69.5695L34.3719 70.4675C34.8156 70.5302 35.2225 70.7588 35.517 71.1109C35.8114 71.463 35.9733 71.9146 35.9727 72.3818V76.1772C35.9727 79.1337 34.6446 81.7686 32.6081 83.3651C31.5389 84.2176 30.267 84.7494 28.9295 84.9031C27.592 85.0568 26.2397 84.8266 25.0183 84.2373C10.2779 77.3376 0 61.9751 0 44.081C0 19.7197 19.0435 0 42.5 0C65.9565 0 85 19.7197 85 44.081C85 62.0675 74.591 77.4707 59.7231 84.3112C58.5008 84.8893 57.1508 85.1097 55.8177 84.9489C54.4845 84.7881 53.2183 84.2522 52.1546 83.3984C51.1028 82.5535 50.2529 81.4658 49.6716 80.2206C49.0903 78.9754 48.7934 77.6066 48.8042 76.2216V64.8022C48.8042 64.5435 48.6306 63.0505 47.6638 61.0438C47.5303 60.7655 47.4631 60.4578 47.4677 60.1467C47.4724 59.8356 47.5489 59.5302 47.6907 59.2565C47.8324 58.9827 48.0353 58.7486 48.2822 58.5741C48.529 58.3995 48.8126 58.2896 49.1088 58.2536C50.3235 58.1132 52.3706 57.703 54.4354 56.938C56.5392 56.1619 58.4269 55.0976 59.5496 53.7893C61.2177 51.8454 62.05 50.3524 62.5069 48.7375C62.9815 47.0634 63.1019 45.1158 63.1019 42.1113C63.1019 37.8946 60.9769 34.3505 59.9994 33.2086C59.7775 32.9505 59.6262 32.6349 59.5614 32.2948C59.4966 31.9548 59.5207 31.6028 59.631 31.2758C60.1269 29.8197 60.729 27.5543 60.9592 25.5328C61.0725 24.5166 61.0796 23.6666 60.9804 23.0531C60.9582 22.8288 60.8932 22.6114 60.7892 22.4138C60.5453 22.3697 60.2953 22.3811 60.056 22.447C59.454 22.5653 58.6854 22.8609 57.8142 23.3118C56.0788 24.2061 54.2725 25.5291 53.1533 26.4752C52.9065 26.6842 52.6121 26.8229 52.2987 26.8779C51.9853 26.933 51.6636 26.9025 51.3648 26.7893C48.4972 25.8106 45.5144 25.2473 42.5 25.1152C38.9335 25.2039 34.8181 26.2609 33.4121 26.7893C33.1133 26.9025 32.7916 26.933 32.4782 26.8779C32.1648 26.8229 31.8703 26.6842 31.6235 26.4752C30.1762 25.2594 28.6146 24.1995 26.9627 23.3118C26.2534 22.9231 25.4986 22.6324 24.7173 22.447C24.4792 22.3816 24.2304 22.3703 23.9877 22.4138C23.8836 22.6114 23.8186 22.8288 23.7965 23.0531C23.6973 23.6666 23.7044 24.5166 23.8177 25.5328C24.0479 27.5543 24.6535 29.8197 25.1458 31.2758C25.369 31.941 25.2308 32.6801 24.7775 33.2086C23.8 34.3505 21.675 37.8946 21.675 42.1113C21.675 45.1121 21.7954 47.0634 22.27 48.7375C22.7304 50.3524 23.5592 51.8418 25.2238 53.7893C26.35 55.0976 28.2342 56.1619 30.3415 56.938C32.0654 57.5746 33.8501 58.0157 35.6646 58.2536C36.0379 58.2954 36.3902 58.4548 36.6745 58.7106C36.9589 58.9665 37.1618 59.3066 37.2564 59.6857C37.351 60.0648 37.3327 60.465 37.204 60.8331C37.0753 61.2011 36.8422 61.5195 36.5358 61.7459C35.9515 62.182 35.5654 62.9655 35.3494 63.8709C35.2378 64.3371 35.1714 64.8137 35.151 65.2937V65.3639C35.1556 65.8325 34.9968 66.2868 34.7043 66.6423C34.4117 66.9979 34.0054 67.2304 33.5608 67.2967Z" fill="white"/>
</svg>
