<svg width="85" height="85" viewBox="0 0 85 85" fill="none" xmlns="http://www.w3.org/2000/svg">
<path d="M70.3906 11.9531H14.6094C13.1424 11.9531 11.9531 13.1424 11.9531 14.6094V70.3906C11.9531 71.8576 13.1424 73.0469 14.6094 73.0469H70.3906C71.8576 73.0469 73.0469 71.8576 73.0469 70.3906V14.6094C73.0469 13.1424 71.8576 11.9531 70.3906 11.9531Z" stroke="white" stroke-width="5.29396" stroke-linecap="round" stroke-linejoin="round"/>
<path d="M39.8438 37.1877V58.4377" stroke="white" stroke-width="5.29396" stroke-linecap="round" stroke-linejoin="round"/>
<path d="M29.2188 37.1877V58.4377" stroke="white" stroke-width="5.29396" stroke-linecap="round" stroke-linejoin="round"/>
<path d="M39.8438 46.4846C39.8438 44.0189 40.8232 41.6542 42.5667 39.9107C44.3102 38.1672 46.6749 37.1877 49.1406 37.1877C51.6063 37.1877 53.971 38.1672 55.7145 39.9107C57.458 41.6542 58.4375 44.0189 58.4375 46.4846V58.4377" stroke="white" stroke-width="5.29396" stroke-linecap="round" stroke-linejoin="round"/>
<path d="M29.2188 30.5469C31.4193 30.5469 33.2031 28.763 33.2031 26.5625C33.2031 24.362 31.4193 22.5781 29.2188 22.5781C27.0182 22.5781 25.2344 24.362 25.2344 26.5625C25.2344 28.763 27.0182 30.5469 29.2188 30.5469Z" fill="white"/>
</svg>
